<svg xmlns="http://www.w3.org/2000/svg" xml:space="preserve" style="enable-background:new 0 0 47.5 47.5" viewBox="0 0 47.5 47.5" id="bike">
  <defs>
    <clipPath id="a">
      <path d="M0 38h38V0H0v38Z"></path>
    </clipPath>
  </defs>
  <g clip-path="url(#a)" transform="matrix(1.25 0 0 -1.25 0 47.5)">
    <path d="M0 0c1.957 0 3.633-1.135 4.455-2.772l3.477 1.739C6.488 1.942 3.446 4-.084 4a8.855 8.855 0 0 1-3.649-.787l1.668-3.67A4.968 4.968 0 0 0 0 0" style="fill:#ea596e;fill-opacity:1;fill-rule:nonzero;stroke:none" transform="translate(8 13)"></path>
    <path d="M0 0c1.467 0 2.772-.643 3.688-1.648L6.585.986A8.881 8.881 0 0 1-.084 4C-3.66 4-6.736 1.889-8.157-1.15l3.648-1.722C-3.707-1.18-1.997 0 0 0" style="fill:#ea596e;fill-opacity:1;fill-rule:nonzero;stroke:none" transform="translate(30 13)"></path>
    <path d="M0 0a5 5 0 1 0 0 10A5 5 0 0 0 0 0m0 12A7 7 0 1 1 0-2a7 7 0 0 1 0 14" style="fill:#292f33;fill-opacity:1;fill-rule:nonzero;stroke:none" transform="translate(8 3)"></path>
    <path d="M0 0a5 5 0 1 0 0 10A5 5 0 0 0 0 0m0 12A7 7 0 1 1 .001-2.001 7 7 0 0 1 0 12" style="fill:#292f33;fill-opacity:1;fill-rule:nonzero;stroke:none" transform="translate(30 3)"></path>
    <path d="M0 0a.98.98 0 0 1-.04.198c-.02.066-.04.126-.071.186-.013.024-.015.052-.03.075l-7 10.999a.999.999 0 0 1-1.38.307.983.983 0 0 1-.446-.843h-9.017a1 1 0 1 1 0-2h10c.027 0 .049.014.077.016l5.1-8.016h-9.177a1 1 0 1 1 0-2H-.983c.116 0 .23.028.342.069.035.013.065.028.097.043.031.017.065.025.097.044.03.02.048.051.075.072a.948.948 0 0 1 .252.297.93.93 0 0 1 .115.373c.004.035.021.066.021.102C.016-.051.002-.027 0 0" style="fill:#dd2e44;fill-opacity:1;fill-rule:nonzero;stroke:none" transform="translate(30.984 8.078)"></path>
    <path d="m0 0-2.899-8.117-5.929 6.775a1 1 0 1 1-1.505-1.317l6.664-7.615-.854-2.39a1 1 0 0 1 1.884-.672L2.124 0H0Z" style="fill:#dd2e44;fill-opacity:1;fill-rule:nonzero;stroke:none" transform="translate(22.581 21)"></path>
    <path d="M0 0a1.001 1.001 0 0 0-.894 1.447l3.062 6.107c.019.027 1.833 2.795 1.833 5.446 0 3.241-2.293 4.043-2.316 4.051a1 1 0 1 0 .632 1.897c.151-.05 3.684-1.281 3.684-5.948 0-3.068-1.836-6.042-2.131-6.498L.896.553A1 1 0 0 0 0 0" style="fill:#dd2e44;fill-opacity:1;fill-rule:nonzero;stroke:none" transform="translate(8 7)"></path>
    <path d="M0 0a.946.946 0 0 0-.166.014l-6 1a1 1 0 1 0 .33 1.972l6-1A1 1 0 0 0 0 0" style="fill:#292f33;fill-opacity:1;fill-rule:nonzero;stroke:none" transform="translate(15.612 23.337)"></path>
    <path d="M0 0a.665.665 0 0 0-.089.006l-5.672.708a.71.71 0 0 0 .087 1.413c.041 0 4.068.018 5.989 1.299.25.168.582.157.825-.026a.712.712 0 0 0 .241-.788L.672.485A.707.707 0 0 0 0 0" style="fill:#292f33;fill-opacity:1;fill-rule:nonzero;stroke:none" transform="translate(27.383 20)"></path>
    <path d="M0 0a2 2 0 1 0-4 0 2 2 0 0 0 4 0" style="fill:#66757f;fill-opacity:1;fill-rule:nonzero;stroke:none" transform="translate(21 8)"></path>
  </g>
</svg>
